<?xml version="1.0" standalone="no"?>
<!DOCTYPE svg PUBLIC "-//W3C//DTD SVG 20010904//EN"
 "http://www.w3.org/TR/2001/REC-SVG-20010904/DTD/svg10.dtd">
<svg version="1.0" xmlns="http://www.w3.org/2000/svg"
 width="300.000000pt" height="225.000000pt" viewBox="0 0 300.000000 225.000000"
 preserveAspectRatio="xMidYMid meet">
<metadata>
Created by potrace 1.10, written by Peter Selinger 2001-2011
</metadata>
<g transform="translate(0.000000,225.000000) scale(0.100000,-0.100000)"
fill="#000000" stroke="none">
<path d="M1351 1841 l-113 -169 25 -37 25 -37 -87 -123 -86 -124 -47 0 -46 -1
-57 -107 c-32 -60 -73 -136 -92 -170 l-35 -63 206 0 206 0 26 40 27 40 162 0
162 0 27 -40 26 -40 206 0 206 0 -40 73 c-21 39 -63 116 -91 170 l-53 97 -46
1 -47 0 -86 124 -87 123 25 37 25 37 -113 169 c-61 93 -113 169 -114 169 -1 0
-53 -76 -114 -169z m227 -17 l101 -151 -25 -37 -25 -36 32 -48 c18 -26 57 -80
87 -120 29 -41 52 -76 49 -78 -2 -3 -75 -3 -161 -2 l-156 3 75 113 c42 62 73
117 70 122 -4 6 -72 10 -160 10 -88 0 -156 -4 -160 -10 -3 -5 28 -60 70 -122
l75 -113 -156 -3 c-86 -1 -159 -1 -161 2 -2 2 35 58 82 124 l86 121 -25 37
-24 36 106 159 c58 88 109 156 112 152 4 -5 53 -76 108 -159z m24 -265 c-9
-15 -44 -67 -77 -117 l-60 -90 -61 91 c-33 51 -68 103 -77 117 l-16 25 154 0
154 0 -17 -26z m-421 -321 c39 -57 81 -113 91 -124 19 -22 19 -22 -4 -58 l-23
-36 -193 0 -194 0 68 128 c104 198 100 192 144 192 37 0 40 -3 111 -102z m269
97 c0 -3 -32 -53 -71 -111 -39 -58 -69 -108 -66 -110 2 -2 38 48 80 111 l77
115 170 0 169 0 -81 -112 c-44 -62 -84 -117 -88 -121 -4 -4 -40 42 -80 103
-40 61 -78 114 -83 117 -13 8 -9 1 75 -125 l69 -103 -164 1 -164 2 -86 119
-86 119 164 0 c91 0 165 -2 165 -5z m536 -154 c46 -85 84 -156 84 -158 0 -2
-87 -3 -192 -3 l-193 0 -22 35 -23 34 91 126 91 126 40 -3 41 -3 83 -154z"/>
<path d="M1439 1809 c-14 -19 -42 -58 -63 -86 l-38 -53 126 0 127 0 -41 58
c-23 32 -52 71 -64 86 l-22 28 -25 -33z m95 -76 l38 -53 -106 0 -105 0 51 74
c59 83 44 86 122 -21z"/>
<path d="M1029 1198 c-24 -46 -45 -89 -47 -95 -3 -10 23 -13 102 -13 58 0 106
3 106 8 0 4 -26 47 -59 95 l-58 88 -44 -83z m100 -20 l52 -78 -96 0 -96 0 43
79 c23 44 43 79 44 78 0 -1 24 -37 53 -79z"/>
<path d="M1792 1185 l-62 -95 111 0 c83 0 110 3 107 13 -4 14 -87 177 -91 177
-1 0 -30 -43 -65 -95z m129 -47 l19 -38 -95 0 -95 0 52 79 53 79 23 -42 c13
-22 33 -58 43 -78z"/>
</g>
</svg>
