<?xml version="1.0" encoding="utf-8"?>
<!-- Generator: Adobe Illustrator 17.1.0, SVG Export Plug-In . SVG Version: 6.00 Build 0)  -->
<!DOCTYPE svg PUBLIC "-//W3C//DTD SVG 1.1//EN" "http://www.w3.org/Graphics/SVG/1.1/DTD/svg11.dtd">
<svg version="1.1" id="Layer_1" xmlns="http://www.w3.org/2000/svg" xmlns:xlink="http://www.w3.org/1999/xlink" x="0px" y="0px"
	 viewBox="0 0 100 100" enable-background="new 0 0 100 100" xml:space="preserve">
<g>
	<rect x="15.2" y="17.2" width="9.9" height="2"/>
	<rect x="15.2" y="20.5" width="37.7" height="2"/>
	<rect x="15.2" y="27.3" width="69.5" height="7"/>
	<rect x="15.2" y="39.4" width="52.3" height="2"/>
	<rect x="15.2" y="42.5" width="67.8" height="2"/>
	<rect x="15.2" y="52.5" width="19.4" height="16.1"/>
	<rect x="15.2" y="71.2" width="15.9" height="2"/>
	<rect x="15.2" y="75.9" width="11.8" height="2"/>
	<rect x="40.3" y="52.5" width="19.4" height="16.1"/>
	<rect x="40.3" y="71.2" width="15.9" height="2"/>
	<rect x="40.3" y="75.9" width="11.8" height="2"/>
	<rect x="15.2" y="85.3" width="44.2" height="2"/>
	<path d="M8,4.1v91.2h83.6h1.8v-1.8V4.1H8z M9.7,93.6V11.8h81.8v81.8H9.7z"/>
	<rect x="65.3" y="52.5" width="19.4" height="16.1"/>
	<rect x="65.3" y="71.2" width="15.9" height="2"/>
	<rect x="65.3" y="75.9" width="11.8" height="2"/>
</g>
</svg>
