<?xml version="1.0" standalone="no"?>
<!DOCTYPE svg PUBLIC "-//W3C//DTD SVG 20010904//EN"
 "http://www.w3.org/TR/2001/REC-SVG-20010904/DTD/svg10.dtd">
<svg version="1.0" xmlns="http://www.w3.org/2000/svg"
 width="900.000000pt" height="675.000000pt" viewBox="0 0 900.000000 675.000000"
 preserveAspectRatio="xMidYMid meet">
<metadata>
Created by potrace 1.10, written by Peter Selinger 2001-2011
</metadata>
<g transform="translate(0.000000,675.000000) scale(0.100000,-0.100000)"
fill="#000000" stroke="none">
<path d="M712 4312 c-10 -7 -12 -309 -10 -1478 l3 -1469 3850 -3 c2118 -1
3860 0 3873 3 l22 5 0 1459 c0 1400 -1 1459 -18 1474 -17 16 -300 17 -3863 17
-2114 0 -3850 -4 -3857 -8z m7683 -1472 c0 -787 -3 -1430 -7 -1430 -5 0 -1725
0 -3823 0 l-3816 0 -2 1430 c-1 786 1 1431 5 1432 5 2 1726 2 3825 0 l3818 -2
0 -1430z"/>
<path d="M3533 3873 c-15 -7 -44 -10 -64 -7 -59 9 -60 4 -53 -252 3 -126 7
-347 8 -492 1 -161 6 -266 12 -272 7 -7 58 -10 130 -8 l119 3 -4 159 c-4 180
2 190 51 91 17 -33 37 -73 45 -90 8 -16 28 -54 44 -84 16 -30 29 -60 29 -67 0
-22 22 -23 223 -15 22 1 27 6 27 26 0 14 -4 33 -9 43 -5 9 -19 40 -31 67 -24
53 -106 183 -126 200 -22 18 -65 96 -59 105 4 6 13 10 21 10 25 0 87 36 115
67 49 54 64 107 64 227 0 79 -4 110 -12 113 -7 3 -13 11 -13 19 0 44 -130 137
-215 155 -68 14 -271 15 -302 2z m342 -68 c17 -10 37 -26 46 -34 8 -9 28 -27
45 -41 43 -37 64 -75 71 -128 4 -41 0 -56 -31 -116 -42 -80 -115 -153 -163
-162 -18 -3 -36 -10 -39 -15 -8 -13 23 -64 66 -110 22 -23 40 -47 40 -52 0
-13 72 -131 82 -135 4 -2 8 -10 8 -17 0 -8 6 -20 14 -28 8 -7 19 -30 24 -49
l10 -36 -52 -6 c-84 -11 -102 2 -155 109 -34 69 -97 181 -114 200 -4 6 -19 30
-31 55 -13 25 -30 45 -37 45 -22 0 -27 -44 -21 -200 4 -129 3 -155 -12 -183
-17 -32 -18 -33 -79 -30 l-62 3 -1 55 c-1 30 -3 233 -5 450 -4 372 -3 398 15
424 l18 29 167 -5 c141 -4 171 -7 196 -23z"/>
<path d="M3625 3675 c-10 -7 -13 -38 -12 -110 l2 -100 46 -9 c25 -5 67 -6 92
-2 40 6 52 14 82 53 19 25 35 52 35 59 0 13 -76 113 -88 115 -43 6 -147 2
-157 -6z m135 -44 c3 -4 12 -10 20 -13 9 -3 22 -17 29 -32 12 -21 12 -30 2
-49 -10 -20 -25 -26 -79 -34 -79 -12 -82 -10 -82 64 0 66 18 87 69 78 20 -4
38 -10 41 -14z"/>
<path d="M4625 3880 c-11 -4 -31 -6 -45 -4 -14 2 -34 -3 -45 -11 -20 -15 -20
-28 -20 -515 0 -274 2 -501 5 -503 9 -9 228 -12 237 -4 4 5 8 90 9 190 1 100
2 189 3 197 3 19 39 -58 40 -85 1 -11 7 -30 15 -41 8 -11 17 -37 21 -57 4 -21
11 -40 16 -43 5 -3 9 -14 9 -26 0 -29 29 -88 58 -120 24 -26 32 -28 103 -28
62 0 81 4 103 21 l27 21 -3 492 c-2 400 -6 496 -17 509 -11 14 -32 17 -107 17
-83 0 -97 -3 -115 -21 -21 -21 -22 -28 -16 -165 3 -79 1 -146 -4 -149 -9 -6
-49 75 -49 100 0 17 -28 77 -40 85 -4 3 -17 25 -28 50 -41 89 -91 117 -157 90z
m79 -56 c9 -3 16 -12 16 -19 0 -8 7 -20 15 -28 21 -22 85 -149 85 -169 0 -10
5 -18 10 -18 6 0 10 -11 10 -24 0 -29 67 -108 88 -104 13 3 16 30 19 173 2 94
6 176 8 183 5 14 122 17 143 4 10 -7 12 -108 10 -473 l-3 -464 -57 -3 c-69 -4
-94 8 -103 48 -4 16 -11 32 -16 35 -5 4 -9 14 -9 23 0 9 -6 29 -14 44 -8 15
-17 40 -21 57 -4 17 -11 33 -16 36 -5 4 -9 13 -9 22 0 17 -40 104 -52 113 -4
3 -17 27 -28 53 -15 34 -26 47 -38 45 -15 -3 -17 -26 -20 -213 -1 -123 -7
-221 -13 -237 -19 -47 -113 -53 -136 -8 -19 35 -12 892 7 915 13 15 92 21 124
9z"/>
<path d="M6888 3881 c-27 -4 -53 -12 -60 -19 -7 -7 -16 -47 -20 -90 -8 -97
-10 -789 -2 -869 l7 -60 103 -6 c57 -4 110 -4 117 -1 18 6 26 174 16 306 -3
46 -4 87 -2 91 8 13 52 -65 53 -90 0 -12 4 -24 9 -28 5 -3 19 -38 31 -78 35
-117 50 -152 76 -180 23 -25 31 -27 102 -27 54 0 84 5 100 16 l22 15 2 407 c2
450 1 566 -7 600 -5 21 -10 22 -103 22 -75 0 -103 -4 -121 -17 -24 -16 -24
-18 -18 -147 3 -72 12 -146 19 -163 10 -26 10 -35 0 -45 -9 -9 -12 -8 -12 8 0
12 -9 29 -20 39 -11 10 -20 26 -20 36 0 10 -4 20 -9 23 -4 3 -11 22 -14 42 -3
20 -13 44 -21 53 -7 9 -28 42 -45 73 -53 100 -64 105 -183 89z m117 -71 c3
-11 10 -20 14 -20 6 0 56 -95 85 -165 53 -125 82 -165 120 -165 l26 0 2 183 3
182 69 0 70 0 -2 -455 c-1 -250 -2 -463 -2 -472 0 -15 -10 -18 -61 -18 -51 0
-64 4 -80 23 -10 12 -19 29 -19 37 0 8 -7 28 -15 44 -8 15 -15 33 -15 38 0 9
-14 44 -45 113 -8 17 -17 41 -21 54 -3 14 -20 46 -35 72 -16 25 -29 54 -29 63
0 17 -45 44 -56 33 -3 -3 -6 -109 -7 -235 -1 -127 -5 -233 -8 -236 -13 -13
-126 -19 -134 -7 -9 15 -9 926 0 941 3 5 35 10 70 10 55 0 65 -3 70 -20z"/>
<path d="M7755 3879 c-11 -4 -32 -8 -47 -8 -15 -1 -33 -7 -40 -13 -7 -7 -29
-24 -48 -37 -44 -31 -61 -54 -82 -111 -33 -91 -15 -736 21 -748 6 -2 11 -9 11
-16 0 -16 52 -64 103 -95 36 -22 45 -23 182 -19 97 2 148 7 157 16 6 6 19 12
28 12 21 0 90 71 90 92 0 9 5 18 12 20 25 9 40 243 23 361 -9 58 -8 58 -177
54 -98 -2 -131 -6 -142 -17 -8 -9 -16 -45 -19 -88 -5 -86 5 -102 64 -102 32 0
40 -4 45 -24 18 -75 -101 -105 -151 -38 -19 25 -20 42 -19 245 l1 217 35 34
c28 28 41 33 60 28 42 -12 66 -37 73 -74 8 -43 20 -48 127 -48 92 0 98 6 98
105 0 45 -7 81 -21 113 -22 49 -71 102 -96 102 -7 0 -24 6 -36 14 -14 9 -52
14 -102 14 -45 1 -92 5 -105 10 -14 5 -34 6 -45 1z m266 -82 c56 -30 86 -84
91 -163 l3 -59 -64 0 c-64 0 -65 0 -73 32 -11 44 -59 80 -115 89 -40 6 -49 4
-63 -13 -9 -11 -26 -23 -37 -27 -12 -4 -31 -23 -43 -43 -19 -33 -20 -41 -9
-85 9 -38 9 -79 0 -176 -9 -91 -9 -135 -2 -155 6 -16 11 -38 11 -51 0 -29 41
-84 82 -109 27 -16 37 -18 63 -8 17 6 38 11 47 11 8 0 27 9 42 21 25 20 27 25
24 93 l-3 71 -48 3 -48 3 3 57 c3 57 3 57 33 54 17 -1 68 -3 115 -5 l85 -2 6
-45 c7 -52 -10 -292 -21 -300 -4 -3 -10 -14 -14 -25 -17 -51 -97 -75 -269 -81
-103 -4 -119 1 -175 50 -44 39 -54 74 -58 196 -2 63 -9 134 -15 157 -6 23 -8
55 -4 70 3 15 10 108 14 205 7 168 8 179 31 203 13 14 29 25 36 25 6 0 17 6
24 14 16 20 56 24 191 20 97 -4 123 -8 160 -27z"/>
<path d="M2450 3870 c-52 -3 -100 -8 -106 -12 -9 -6 -11 -145 -10 -510 l1
-503 102 -3 c84 -2 107 1 135 16 l33 19 -3 151 c-2 83 -1 159 2 170 6 17 18
20 87 24 44 2 83 8 87 13 4 6 23 18 43 28 33 17 67 45 96 80 16 21 53 103 53
121 0 8 5 27 12 41 9 21 8 41 -6 100 -10 41 -22 75 -27 75 -5 0 -9 6 -9 13 0
25 -89 114 -142 141 -44 23 -71 29 -153 35 -55 3 -143 4 -195 1z m230 -60 c8
-4 35 -11 60 -15 57 -10 100 -42 147 -113 38 -57 38 -58 37 -154 -1 -75 -5
-100 -18 -113 -9 -9 -16 -22 -16 -29 0 -19 -38 -50 -105 -87 -56 -30 -66 -33
-152 -32 l-92 1 6 -174 c7 -208 5 -214 -83 -214 -45 0 -55 4 -65 22 -8 15 -11
108 -10 317 2 444 8 593 23 603 15 9 246 0 268 -12z"/>
<path d="M2542 3648 c-12 -15 -5 -208 8 -222 4 -4 45 -5 90 -1 70 6 87 11 113
35 25 22 32 36 32 67 0 42 -28 88 -60 99 -10 4 -25 13 -33 20 -18 18 -135 19
-150 2z m145 -53 c66 -33 47 -108 -30 -119 -66 -10 -75 -3 -79 62 -2 31 -3 60
-1 65 7 13 79 8 110 -8z"/>
<path d="M4396 3868 c-12 -7 -50 -9 -105 -5 -47 4 -92 3 -98 -1 -7 -5 -12 -26
-12 -48 3 -88 -10 -718 -16 -840 -7 -123 -7 -131 11 -135 11 -2 75 -3 142 -1
l124 3 -7 37 c-8 44 -7 930 1 944 7 11 -4 58 -14 58 -4 0 -16 -6 -26 -12z
m-69 -48 c49 0 51 -11 46 -272 -3 -134 -6 -333 -6 -443 l-2 -200 -65 0 -64 0
-4 367 c-4 336 5 518 25 551 3 5 15 6 27 3 11 -3 31 -6 43 -6z"/>
<path d="M6460 3873 c-43 -3 -71 -10 -83 -21 -28 -25 -54 -89 -66 -162 -12
-76 -33 -171 -56 -255 -20 -71 -42 -184 -60 -315 -7 -52 -20 -133 -29 -179 -8
-46 -13 -88 -10 -92 3 -5 54 -9 114 -9 l108 0 7 33 c4 17 11 37 15 42 4 6 11
35 14 65 6 48 11 57 38 73 29 17 32 17 49 1 11 -10 19 -27 19 -38 0 -12 7 -34
15 -50 8 -15 15 -39 15 -52 0 -12 10 -34 23 -49 19 -22 33 -26 99 -32 92 -7
110 2 101 50 -3 18 -12 39 -19 47 -7 8 -15 49 -17 90 -3 41 -12 111 -21 155
-47 242 -69 347 -91 435 -9 36 -21 92 -27 125 -5 33 -14 64 -19 70 -5 5 -9 18
-9 30 0 23 -18 46 -34 43 -6 -1 -40 -3 -76 -5z m48 -49 c14 -4 22 -14 22 -27
0 -11 4 -34 9 -51 6 -17 14 -56 20 -86 16 -91 31 -141 46 -157 10 -9 15 -36
16 -76 1 -70 2 -77 18 -167 14 -74 36 -158 57 -213 8 -20 14 -51 14 -67 0 -16
7 -33 16 -38 9 -5 14 -18 12 -28 -4 -21 -49 -30 -102 -20 -27 5 -33 13 -49 64
-9 31 -17 61 -17 65 0 15 -33 81 -44 89 -13 9 -78 10 -101 2 -21 -9 -41 -50
-50 -104 -11 -74 -32 -110 -63 -110 -15 -1 -38 -7 -52 -15 -14 -8 -31 -14 -37
-15 -15 0 -17 53 -3 79 14 26 30 121 40 235 5 54 14 103 19 110 5 6 14 38 19
71 6 33 18 89 27 125 9 36 22 94 30 130 25 117 43 181 55 196 13 14 58 18 98
8z"/>
<path d="M6446 3563 c-3 -3 -6 -27 -6 -51 0 -25 -6 -53 -14 -61 -9 -10 -15
-48 -17 -106 l-4 -90 35 -3 c66 -6 83 -4 91 10 5 7 7 19 4 26 -3 8 -5 31 -5
53 0 56 -28 54 -32 -2 -3 -47 -31 -76 -48 -49 -13 22 0 102 21 122 19 18 35
97 26 122 -7 18 -42 38 -51 29z"/>
<path d="M1179 3852 c-29 -34 -51 -86 -59 -142 -11 -72 -34 -171 -55 -240 -16
-55 -35 -145 -55 -270 -22 -137 -33 -206 -37 -245 -3 -22 -9 -44 -14 -50 -5
-5 -9 -21 -9 -36 l0 -28 98 -3 c129 -4 139 0 147 57 4 25 11 48 16 51 5 3 9
23 9 45 0 34 5 42 33 59 17 11 34 20 37 20 10 0 39 -65 46 -102 3 -21 10 -38
15 -38 5 0 9 -11 9 -24 0 -50 29 -68 118 -73 94 -6 116 3 105 46 -3 14 -12 31
-19 36 -7 6 -15 40 -17 80 -3 39 -12 108 -22 155 -9 47 -23 117 -29 155 -7 39
-15 77 -19 85 -3 8 -10 42 -16 75 -5 33 -17 87 -26 120 -9 33 -21 85 -26 115
-5 30 -13 64 -18 75 -5 11 -12 37 -16 58 l-6 37 -87 0 c-72 0 -90 -3 -103 -18z
m135 -32 c23 -8 26 -15 26 -54 0 -25 4 -47 9 -50 4 -3 11 -30 14 -59 6 -59 37
-157 49 -157 5 0 8 -26 8 -59 0 -32 5 -83 11 -112 6 -30 17 -83 24 -119 20
-98 34 -152 50 -185 11 -26 19 -82 16 -122 -1 -9 -18 -13 -51 -13 -48 0 -50 1
-70 42 -11 23 -20 50 -20 61 0 17 -17 64 -39 107 -11 21 -96 25 -126 6 -16
-11 -25 -29 -29 -63 -8 -53 -25 -111 -39 -130 -5 -7 -20 -13 -34 -13 -13 0
-38 -7 -55 -16 -42 -22 -54 -7 -38 48 19 67 42 180 42 208 0 33 18 151 26 170
3 8 11 44 18 80 7 36 20 94 29 130 9 36 22 93 28 127 7 34 15 65 19 69 4 4 11
29 14 55 4 32 12 49 23 52 30 8 70 7 95 -3z"/>
<path d="M1246 3555 c-10 -28 -7 -65 7 -65 14 0 37 -67 37 -110 0 -16 3 -30 8
-30 10 0 6 148 -5 185 -10 33 -37 45 -47 20z"/>
<path d="M1226 3468 c-8 -22 -26 -202 -21 -206 9 -10 91 -20 113 -15 20 5 23
11 20 46 -3 40 -28 66 -28 29 0 -23 -24 -46 -42 -40 -9 4 -13 31 -13 98 0 65
-4 94 -12 97 -7 3 -15 -1 -17 -9z"/>
<path d="M3071 3861 c-4 -3 -9 -28 -9 -56 0 -27 -4 -255 -9 -505 -6 -250 -8
-457 -7 -459 4 -5 267 -1 272 4 2 2 -2 54 -9 117 -9 81 -10 188 -5 383 4 148
7 304 6 345 -1 41 3 94 8 117 5 22 7 45 3 50 -6 10 -235 13 -250 4z m177 -55
c10 -10 11 -105 6 -459 l-7 -448 -66 3 -66 3 0 453 c0 389 2 454 15 462 18 11
101 1 118 -14z"/>
<path d="M1855 3850 c-3 -5 -15 -10 -25 -10 -33 0 -103 -41 -146 -86 -54 -56
-89 -159 -81 -243 6 -69 49 -153 99 -194 35 -28 59 -37 163 -59 60 -14 121
-50 130 -78 10 -30 -4 -79 -25 -90 -28 -15 -87 -12 -104 5 -8 9 -23 29 -33 45
l-17 30 -113 0 c-90 0 -115 -3 -119 -14 -11 -29 27 -151 65 -206 55 -80 125
-110 258 -110 69 0 88 4 139 30 32 16 66 30 75 30 23 0 78 59 102 110 18 36
22 63 22 140 0 124 -21 168 -119 248 -34 27 -133 70 -177 77 -52 8 -99 44 -99
76 0 11 12 32 26 46 21 21 32 25 66 20 44 -6 74 -32 80 -68 4 -30 52 -43 140
-36 114 10 120 19 92 133 -14 55 -25 74 -65 114 -73 73 -139 100 -243 100 -47
0 -88 -4 -91 -10z m218 -83 c32 -17 74 -48 92 -70 33 -38 54 -105 40 -127 -3
-5 -34 -10 -69 -10 -62 0 -62 0 -93 44 -32 45 -80 76 -118 76 -24 0 -75 -21
-75 -32 0 -4 -7 -14 -17 -23 -9 -9 -18 -38 -21 -64 -4 -42 -1 -52 26 -82 18
-21 50 -41 83 -53 30 -10 73 -27 96 -37 23 -10 46 -19 51 -19 19 0 94 -75 112
-113 25 -50 26 -139 4 -193 -17 -40 -93 -124 -112 -124 -6 0 -18 -8 -28 -17
-15 -15 -37 -18 -138 -18 -115 0 -123 1 -163 28 -24 15 -54 44 -67 65 -27 43
-41 97 -28 106 5 3 39 6 77 7 66 2 68 1 99 -33 44 -50 82 -63 128 -44 47 20
81 52 98 94 12 30 11 37 -5 64 -34 57 -105 108 -152 108 -12 0 -24 4 -27 9 -4
5 -28 12 -55 16 -41 5 -56 14 -88 48 -38 42 -73 114 -73 152 1 30 34 125 63
175 29 52 85 86 162 99 72 13 132 3 198 -32z"/>
<path d="M5520 3845 c-13 -16 -14 -14 15 -315 9 -91 20 -214 25 -273 5 -60 14
-123 19 -140 5 -18 14 -63 20 -102 5 -38 12 -83 16 -100 3 -16 8 -40 11 -52 4
-21 10 -23 62 -23 61 0 82 13 97 61 4 13 11 29 15 34 4 6 10 24 14 40 l8 30
24 -28 c13 -15 24 -34 24 -41 0 -18 31 -79 44 -88 19 -13 113 -9 125 5 6 8 15
79 21 158 5 79 14 171 19 204 5 33 10 91 10 128 1 38 5 76 10 86 10 18 33 252
35 361 l1 65 -102 3 c-100 3 -103 2 -107 -20 -13 -61 -19 -137 -25 -291 -3
-96 -10 -168 -16 -170 -5 -1 -12 9 -15 23 -10 49 -34 100 -47 100 -16 0 -18
-86 -2 -95 14 -9 29 -50 43 -115 10 -49 15 -55 36 -55 25 0 25 1 32 120 11
203 11 212 5 222 -3 5 1 23 10 39 8 16 18 63 22 104 l6 74 45 8 c25 4 48 4 53
-1 14 -14 -11 -304 -52 -601 -6 -41 -10 -123 -11 -182 0 -107 0 -108 -26 -114
-36 -9 -72 10 -80 43 -4 15 -10 33 -14 38 -4 6 -11 26 -15 45 -8 38 -34 79
-50 80 -6 0 -21 -30 -34 -67 -47 -135 -51 -143 -87 -143 -30 0 -34 3 -39 38
-3 20 -10 53 -15 72 -15 58 -30 187 -40 330 -5 74 -14 169 -19 210 -6 41 -12
116 -13 165 l-3 90 37 3 c76 6 81 -8 107 -308 6 -63 13 -131 16 -150 3 -19 8
-54 11 -77 6 -51 26 -57 49 -13 22 43 19 105 -7 141 -21 28 -23 46 -30 222 -4
106 -12 202 -18 215 -9 21 -16 22 -109 22 -76 0 -101 -3 -111 -15z"/>
<path d="M2850 2420 c-11 -7 -15 -39 -17 -150 -3 -180 -4 -180 131 -180 86 0
95 2 101 20 11 34 -3 40 -96 40 l-89 0 0 55 0 55 54 0 c63 0 86 7 86 25 0 17
-44 27 -86 19 -44 -8 -62 7 -56 46 l4 30 82 0 c87 0 112 9 103 34 -5 13 -24
16 -104 16 -54 0 -105 -4 -113 -10z"/>
<path d="M3315 2419 c-4 -6 -4 -58 -1 -114 5 -63 3 -105 -2 -109 -6 -3 -20 13
-31 35 -12 23 -28 48 -36 56 -8 8 -15 21 -15 29 0 8 -3 14 -8 14 -4 0 -19 20
-32 45 -21 38 -29 45 -50 43 l-25 -3 -3 -149 c-1 -82 2 -154 7 -159 5 -5 18
-4 31 3 21 11 22 17 19 103 -5 105 7 120 41 55 12 -24 34 -59 49 -78 14 -19
31 -44 37 -54 13 -24 41 -43 50 -33 4 3 7 77 8 164 1 139 -1 158 -16 161 -9 2
-19 -2 -23 -9z"/>
<path d="M3565 2418 c-3 -7 -6 -69 -7 -138 -3 -124 -3 -125 -29 -134 -38 -13
-76 0 -91 32 -17 35 -42 35 -46 -1 -3 -21 5 -35 28 -57 42 -40 110 -42 155 -6
30 24 30 24 36 158 5 112 3 135 -10 146 -8 6 -19 12 -23 12 -5 0 -11 -6 -13
-12z"/>
<path d="M3699 2403 c-76 -82 -61 -252 26 -298 62 -32 115 -15 156 51 18 29
21 47 18 113 -4 71 -7 83 -35 118 -28 35 -36 38 -85 41 -49 3 -57 0 -80 -25z
m129 -38 c18 -21 22 -37 22 -100 0 -62 -4 -80 -20 -97 -24 -26 -83 -30 -105
-7 -20 20 -29 116 -16 167 18 64 79 83 119 37z"/>
<path d="M3914 2415 c-3 -8 2 -25 13 -39 10 -13 25 -34 33 -46 8 -12 22 -29
30 -38 11 -12 14 -35 13 -90 -3 -83 9 -121 33 -101 10 8 14 33 14 82 0 69 0
70 55 142 58 75 68 105 36 105 -23 0 -51 -25 -51 -46 0 -8 -3 -14 -7 -14 -5 0
-16 -14 -25 -30 -9 -17 -21 -30 -27 -30 -5 0 -26 27 -46 60 -36 59 -60 74 -71
45z"/>
<path d="M4283 2414 c-8 -21 15 -35 52 -32 l30 3 -4 -126 c-3 -135 7 -182 35
-158 11 9 14 41 14 145 l0 134 28 0 c36 0 56 14 49 34 -9 24 -195 24 -204 0z"/>
<path d="M4725 2420 c-4 -6 -5 -34 -3 -63 l3 -52 -54 -3 c-93 -5 -98 -2 -93
64 l5 56 -29 -4 -29 -3 -3 -151 c-2 -128 0 -153 13 -158 34 -13 44 4 47 77 l3
72 68 3 c75 3 70 11 67 -91 -1 -45 2 -58 15 -63 9 -4 20 -2 24 4 5 8 7 276 2
315 -1 11 -29 9 -36 -3z"/>
<path d="M4833 2423 c-10 -3 -13 -44 -13 -152 0 -185 -3 -181 133 -181 88 0
96 2 102 21 4 12 3 25 -2 30 -4 4 -49 9 -98 11 l-90 3 -3 53 -3 52 66 0 c51 0
67 4 72 16 9 24 -17 36 -64 30 -59 -8 -73 0 -73 40 0 38 -4 37 105 35 75 -2
101 8 92 33 -5 13 -24 16 -109 15 -57 0 -109 -3 -115 -6z"/>
<path d="M5207 2424 c-12 -12 -8 -57 8 -88 8 -15 15 -36 15 -45 0 -9 6 -28 14
-43 8 -15 17 -42 21 -60 11 -48 33 -88 50 -88 17 0 38 46 49 105 4 22 12 45
16 50 5 6 10 26 12 45 7 75 28 30 83 -177 4 -13 11 -23 16 -23 24 0 49 22 49
43 0 12 7 35 15 50 8 15 17 45 21 65 4 20 10 42 14 47 4 6 11 26 15 45 4 19
11 40 16 46 12 15 -14 36 -34 28 -9 -3 -19 -22 -22 -42 -4 -21 -10 -46 -15
-57 -5 -11 -11 -36 -14 -56 -4 -20 -15 -44 -26 -54 -18 -16 -19 -16 -25 22 -3
21 -10 46 -15 55 -5 9 -12 34 -16 56 -8 49 -36 87 -58 79 -9 -4 -16 -17 -16
-31 0 -13 -7 -37 -15 -52 -8 -16 -15 -39 -15 -51 0 -12 -4 -25 -10 -28 -5 -3
-10 -18 -10 -33 0 -15 -4 -33 -9 -40 -9 -15 -34 51 -47 123 -3 22 -10 45 -14
50 -5 6 -10 21 -12 35 -3 24 -27 38 -41 24z"/>
<path d="M5661 2408 c-4 -13 -9 -82 -9 -155 -2 -168 -5 -165 127 -161 95 3 96
3 96 28 0 24 -2 25 -90 30 l-90 5 0 55 0 55 55 -3 c66 -3 91 8 70 33 -10 12
-27 15 -69 13 l-56 -3 0 40 0 40 90 0 c83 0 90 1 90 20 0 19 -8 20 -103 23
-99 3 -103 2 -111 -20z"/>
<path d="M5943 2423 c-10 -3 -13 -44 -13 -155 0 -132 2 -152 18 -164 20 -16
138 -19 147 -4 3 6 15 10 25 10 29 0 63 64 56 104 -4 19 -13 40 -22 47 -12 9
-14 24 -9 64 7 49 5 54 -21 79 -26 23 -36 26 -99 25 -38 0 -76 -3 -82 -6z
m138 -43 c28 -16 26 -66 -3 -74 -30 -8 -72 -8 -92 0 -23 9 -22 71 2 77 32 9
73 7 93 -3z m36 -139 c18 -24 16 -56 -6 -75 -14 -13 -33 -16 -77 -14 l-59 3
-3 52 c-3 59 1 62 83 54 30 -2 55 -11 62 -20z"/>
</g>
</svg>
