<?xml version="1.0" encoding="iso-8859-1"?>
<!-- Generator: Adobe Illustrator 19.0.0, SVG Export Plug-In . SVG Version: 6.00 Build 0)  -->
<svg version="1.1" id="Capa_1" xmlns="http://www.w3.org/2000/svg" xmlns:xlink="http://www.w3.org/1999/xlink" x="0px" y="0px"
	 viewBox="0 0 61.833 61.833" style="enable-background:new 0 0 61.833 61.833;" xml:space="preserve">
<g>
	<path d="M17.023,27.666c0-3.171-2.579-5.75-5.75-5.75c-0.735,0-1.454,0.138-2.136,0.41c-0.514,0.204-0.764,0.786-0.559,1.299
		c0.205,0.515,0.79,0.763,1.299,0.559c0.445-0.178,0.915-0.268,1.396-0.268c2.067,0,3.75,1.683,3.75,3.75s-1.683,3.75-3.75,3.75
		s-3.75-1.683-3.75-3.75c0-0.649,0.169-1.289,0.487-1.849c0.273-0.48,0.106-1.091-0.374-1.364c-0.481-0.273-1.091-0.105-1.364,0.374
		c-0.49,0.861-0.749,1.843-0.749,2.839c0,3.171,2.579,5.75,5.75,5.75S17.023,30.837,17.023,27.666z"/>
	<path d="M46.06,21.916c-0.735,0-1.454,0.138-2.136,0.41c-0.514,0.204-0.764,0.786-0.559,1.299c0.205,0.515,0.79,0.763,1.299,0.559
		c0.445-0.178,0.915-0.268,1.396-0.268c2.067,0,3.75,1.683,3.75,3.75s-1.683,3.75-3.75,3.75c-2.067,0-3.75-1.683-3.75-3.75
		c0-0.649,0.169-1.289,0.487-1.849c0.273-0.48,0.105-1.091-0.374-1.364c-0.48-0.273-1.091-0.105-1.364,0.374
		c-0.49,0.861-0.749,1.843-0.749,2.839c0,3.171,2.579,5.75,5.75,5.75c3.171,0,5.75-2.579,5.75-5.75S49.23,21.916,46.06,21.916z"/>
	<path d="M10.167,40.166c0,0.553,0.447,1,1,1h9.28c0.553,0,1-0.447,1-1s-0.447-1-1-1h-9.28
		C10.614,39.166,10.167,39.614,10.167,40.166z"/>
	<path d="M22.802,40.166c0,0.553,0.447,1,1,1h2.837c0.553,0,1-0.447,1-1s-0.447-1-1-1h-2.837
		C23.249,39.166,22.802,39.614,22.802,40.166z"/>
	<path d="M28.8,40.166c0,0.553,0.447,1,1,1h7.794c0.553,0,1-0.447,1-1s-0.447-1-1-1H29.8C29.247,39.166,28.8,39.614,28.8,40.166z"/>
	<path d="M46.166,39.166h-4.994c-0.553,0-1,0.447-1,1s0.447,1,1,1h4.994c0.553,0,1-0.447,1-1S46.719,39.166,46.166,39.166z"/>
	<path d="M20.447,49.666h-9.28c-0.553,0-1,0.447-1,1s0.447,1,1,1h9.28c0.553,0,1-0.447,1-1S21,49.666,20.447,49.666z"/>
	<path d="M26.639,49.666h-2.837c-0.553,0-1,0.447-1,1s0.447,1,1,1h2.837c0.553,0,1-0.447,1-1S27.191,49.666,26.639,49.666z"/>
	<path d="M37.594,49.666H29.8c-0.553,0-1,0.447-1,1s0.447,1,1,1h7.794c0.553,0,1-0.447,1-1S38.146,49.666,37.594,49.666z"/>
	<path d="M46.166,49.666h-4.994c-0.553,0-1,0.447-1,1s0.447,1,1,1h4.994c0.553,0,1-0.447,1-1S46.719,49.666,46.166,49.666z"/>
	<path d="M46.166,44.416h-9.28c-0.553,0-1,0.447-1,1s0.447,1,1,1h9.28c0.553,0,1-0.447,1-1S46.719,44.416,46.166,44.416z"/>
	<path d="M30.694,44.416c-0.553,0-1,0.447-1,1s0.447,1,1,1h2.836c0.553,0,1-0.447,1-1s-0.447-1-1-1H30.694z"/>
	<path d="M27.532,44.416h-7.793c-0.553,0-1,0.447-1,1s0.447,1,1,1h7.793c0.553,0,1-0.447,1-1S28.085,44.416,27.532,44.416z"/>
	<path d="M11.167,44.416c-0.553,0-1,0.447-1,1s0.447,1,1,1h4.994c0.553,0,1-0.447,1-1s-0.447-1-1-1H11.167z"/>
	<path d="M22.371,30.479c0.553,0,1-0.447,1-1v-1.812c0-0.553-0.447-1-1-1c-0.553,0-1,0.447-1,1v1.812
		C21.371,30.032,21.818,30.479,22.371,30.479z"/>
	<path d="M25.518,28.979c0.553,0,1-0.447,1-1v-2.125c0-0.553-0.447-1-1-1c-0.553,0-1,0.447-1,1v2.125
		C24.518,28.532,24.966,28.979,25.518,28.979z"/>
	<path d="M29.666,29.479v-1.188c0-0.553-0.447-1-1-1s-1,0.447-1,1v1.188c0,0.553,0.447,1,1,1S29.666,30.032,29.666,29.479z"/>
	<path d="M31.814,28.229c0.553,0,1-0.447,1-1v-1.375c0-0.553-0.447-1-1-1c-0.553,0-1,0.447-1,1v1.375
		C30.814,27.782,31.262,28.229,31.814,28.229z"/>
	<path d="M34.962,30.479c0.553,0,1-0.447,1-1v-1.188c0-0.553-0.447-1-1-1s-1,0.447-1,1v1.188
		C33.962,30.032,34.409,30.479,34.962,30.479z"/>
	<path d="M59.208,22.958h-1.875v-2.479c0-2.263-1.841-4.104-4.104-4.104H9.166v-2.459h1.625v1.229c0,0.553,0.447,1,1,1s1-0.447,1-1
		v-1.454L55.166,2.76c0.534-0.139,0.856-0.684,0.719-1.219c-0.139-0.535-0.684-0.854-1.219-0.719L11.662,11.916H8.166
		c-0.553,0-1,0.447-1,1v3.459H4.103C1.841,16.375,0,18.216,0,20.479v36.459c0,2.263,1.841,4.104,4.103,4.104h49.125
		c2.264,0,4.104-1.841,4.104-4.104V33.708h1.875c1.447,0,2.625-1.178,2.625-2.625v-5.5C61.833,24.136,60.655,22.958,59.208,22.958z
		 M59.833,31.083c0,0.345-0.28,0.625-0.625,0.625h-1.875V28.48c0-0.553-0.447-1-1-1s-1,0.447-1,1v28.458
		c0,1.16-0.944,2.104-2.104,2.104H4.103C2.943,59.041,2,58.098,2,56.938V20.479c0-1.16,0.943-2.104,2.103-2.104h49.125
		c1.16,0,2.104,0.943,2.104,2.104v3.479c0,0.553,0.447,1,1,1h2.875c0.345,0,0.625,0.28,0.625,0.625V31.083z"/>
</g>
<g>
</g>
<g>
</g>
<g>
</g>
<g>
</g>
<g>
</g>
<g>
</g>
<g>
</g>
<g>
</g>
<g>
</g>
<g>
</g>
<g>
</g>
<g>
</g>
<g>
</g>
<g>
</g>
<g>
</g>
</svg>
