<?xml version="1.0" encoding="iso-8859-1"?>
<!-- Generator: Adobe Illustrator 17.1.0, SVG Export Plug-In . SVG Version: 6.00 Build 0)  -->
<!DOCTYPE svg PUBLIC "-//W3C//DTD SVG 1.1//EN" "http://www.w3.org/Graphics/SVG/1.1/DTD/svg11.dtd">
<svg version="1.1" id="Capa_1" xmlns="http://www.w3.org/2000/svg" xmlns:xlink="http://www.w3.org/1999/xlink" x="0px" y="0px"
	 viewBox="0 0 201.297 201.297" style="enable-background:new 0 0 201.297 201.297;" xml:space="preserve">
<path d="M154.282,187.96c-25.924,0-47.016-22.467-47.016-50.083c0-1.381,1.119-2.5,2.5-2.5h11.071c1.381,0,2.5,1.119,2.5,2.5
	c0,18.334,13.881,33.249,30.944,33.249c17.063,0,30.944-14.915,30.944-33.249V15.837c0-1.381,1.119-2.5,2.5-2.5h11.071
	c1.381,0,2.5,1.119,2.5,2.5v122.04C201.297,165.493,180.206,187.96,154.282,187.96z M112.33,140.377
	c1.213,23.7,19.566,42.583,41.952,42.583c23.167,0,42.015-20.225,42.015-45.083V18.337h-6.071v119.54
	c0,21.091-16.125,38.249-35.944,38.249c-19.031,0-34.655-15.818-35.868-35.749H112.33z M88.976,123.633
	c-2.314,0-4.631-0.765-6.598-2.304l-14.596-11.42c-2.041,1.271-4.397,1.966-6.813,1.966H26.14c-11.018,0-19.982-9.368-19.982-20.884
	v-2.702C2.69,87.852,0,84.885,0,81.301V66.723c0-3.584,2.69-6.551,6.158-6.988V55.98c0-11.516,8.964-20.884,19.982-20.884h126.439
	c11.018,0,19.982,9.368,19.982,20.884v3.754c3.467,0.438,6.158,3.404,6.158,6.988v14.578c0,3.584-2.69,6.551-6.158,6.988v2.702
	c0,11.516-8.964,20.884-19.982,20.884h-34.83c-2.891,0-5.697-0.995-7.979-2.784l-13.789,11.9
	C93.946,122.748,91.463,123.633,88.976,123.633z M71.539,106.5l13.92,10.892c2.174,1.699,5.158,1.625,7.255-0.186l13.571-11.712
	L93.618,91.251c-1.096-1.232-2.608-1.911-4.258-1.911s-3.162,0.679-4.258,1.911L71.539,106.5z M89.359,84.34
	c3.052,0,5.966,1.308,7.995,3.589l14.41,16.201c1.551,1.744,3.733,2.745,5.986,2.745h34.83c8.261,0,14.982-7.125,14.982-15.884
	v-5.146c0-1.381,1.119-2.5,2.5-2.5h1.613c1.127,0,2.044-0.917,2.044-2.044V66.723c0-1.127-0.917-2.044-2.044-2.044h-1.613
	c-1.381,0-2.5-1.119-2.5-2.5V55.98c0-8.759-6.721-15.884-14.982-15.884H26.14c-8.261,0-14.982,7.125-14.982,15.884v6.198
	c0,1.381-1.119,2.5-2.5,2.5H7.044C5.917,64.679,5,65.596,5,66.723v14.578c0,1.127,0.917,2.044,2.044,2.044h1.613
	c1.381,0,2.5,1.119,2.5,2.5v5.146c0,8.759,6.721,15.884,14.982,15.884h34.83c1.711,0,3.381-0.577,4.765-1.619
	c0.019-0.026,0.039-0.052,0.059-0.078c0.226-0.289,0.503-0.515,0.809-0.675c0.121-0.12,0.238-0.244,0.353-0.373l14.41-16.201
	C83.393,85.647,86.307,84.34,89.359,84.34z M152.963,103.148h-30.39c-3.085,0-6.091-1.364-8.247-3.743L95.068,78.158h0
	c-2.126-2.345-3.297-5.446-3.297-8.734V56.819c0-6.88,5.178-12.478,11.543-12.478h49.648c6.365,0,11.543,5.598,11.543,12.478v33.852
	C164.507,97.551,159.329,103.148,152.963,103.148z M103.315,49.342c-3.608,0-6.543,3.354-6.543,7.478v12.604
	c0,2.014,0.729,3.974,2.001,5.377h0l19.258,21.247c1.228,1.354,2.841,2.101,4.542,2.101h30.39c3.608,0,6.543-3.354,6.543-7.478
	V56.819c0-4.123-2.936-7.478-6.543-7.478H103.315z M55.887,103.148h-30.39c-6.365,0-11.543-5.598-11.543-12.478V56.819
	c0-6.88,5.178-12.478,11.543-12.478h49.648c6.365,0,11.543,5.598,11.543,12.478v12.604c0,3.288-1.171,6.39-3.297,8.734
	L64.134,99.405C61.978,101.784,58.972,103.148,55.887,103.148z M25.497,49.342c-3.608,0-6.543,3.354-6.543,7.478v33.852
	c0,4.123,2.936,7.478,6.543,7.478h30.39c1.701,0,3.314-0.746,4.542-2.101l19.258-21.247c1.272-1.403,2.001-3.363,2.001-5.377V56.819
	c0-4.123-2.936-7.478-6.543-7.478H25.497z"/>
<g>
</g>
<g>
</g>
<g>
</g>
<g>
</g>
<g>
</g>
<g>
</g>
<g>
</g>
<g>
</g>
<g>
</g>
<g>
</g>
<g>
</g>
<g>
</g>
<g>
</g>
<g>
</g>
<g>
</g>
</svg>
